<?xml version="1.0" encoding="UTF-8"?>
<svg xmlns="http://www.w3.org/2000/svg" xmlns:xlink="http://www.w3.org/1999/xlink" width="1280" height="720" viewBox="0 0 1280 720">
<defs>
<g>
<g id="glyph-0-0">
<path d="M 6.917969 -4.589844 C 7.128906 -4.355469 7.285156 -4.097656 7.386719 -3.820312 C 7.488281 -3.539062 7.539062 -3.214844 7.539062 -2.84375 C 7.539062 -1.957031 7.210938 -1.230469 6.558594 -0.65625 C 5.90625 -0.0820312 5.09375 0.203125 4.125 0.203125 C 3.679688 0.203125 3.234375 0.136719 2.785156 -0.00390625 C 2.339844 -0.140625 1.953125 -0.308594 1.628906 -0.507812 L 1.324219 0.0078125 L 0.761719 0.0078125 L 0.664062 -3.421875 L 1.234375 -3.421875 C 1.351562 -2.996094 1.488281 -2.617188 1.648438 -2.273438 C 1.804688 -1.933594 2.011719 -1.613281 2.269531 -1.320312 C 2.515625 -1.042969 2.800781 -0.820312 3.128906 -0.65625 C 3.453125 -0.492188 3.835938 -0.410156 4.265625 -0.410156 C 4.589844 -0.410156 4.875 -0.453125 5.117188 -0.535156 C 5.359375 -0.621094 5.554688 -0.742188 5.707031 -0.894531 C 5.855469 -1.050781 5.96875 -1.234375 6.039062 -1.445312 C 6.113281 -1.652344 6.148438 -1.894531 6.148438 -2.167969 C 6.148438 -2.566406 6.039062 -2.941406 5.8125 -3.285156 C 5.585938 -3.632812 5.25 -3.894531 4.804688 -4.074219 C 4.496094 -4.195312 4.148438 -4.332031 3.753906 -4.476562 C 3.355469 -4.625 3.015625 -4.765625 2.730469 -4.894531 C 2.164062 -5.148438 1.726562 -5.484375 1.414062 -5.894531 C 1.101562 -6.304688 0.945312 -6.84375 0.945312 -7.503906 C 0.945312 -7.886719 1.023438 -8.242188 1.179688 -8.570312 C 1.332031 -8.898438 1.554688 -9.191406 1.839844 -9.449219 C 2.113281 -9.695312 2.433594 -9.886719 2.808594 -10.027344 C 3.179688 -10.164062 3.566406 -10.234375 3.96875 -10.234375 C 4.429688 -10.234375 4.84375 -10.164062 5.207031 -10.023438 C 5.574219 -9.882812 5.90625 -9.714844 6.207031 -9.527344 L 6.496094 -10.007812 L 7.058594 -10.007812 L 7.117188 -6.6875 L 6.546875 -6.6875 C 6.441406 -7.066406 6.324219 -7.429688 6.195312 -7.777344 C 6.066406 -8.128906 5.898438 -8.441406 5.691406 -8.722656 C 5.488281 -8.996094 5.242188 -9.214844 4.949219 -9.375 C 4.660156 -9.539062 4.300781 -9.621094 3.878906 -9.621094 C 3.433594 -9.621094 3.050781 -9.476562 2.738281 -9.191406 C 2.421875 -8.902344 2.265625 -8.550781 2.265625 -8.140625 C 2.265625 -7.707031 2.363281 -7.347656 2.566406 -7.0625 C 2.769531 -6.777344 3.0625 -6.546875 3.449219 -6.363281 C 3.792969 -6.195312 4.128906 -6.054688 4.460938 -5.933594 C 4.792969 -5.816406 5.113281 -5.6875 5.421875 -5.550781 C 5.707031 -5.429688 5.976562 -5.289062 6.238281 -5.132812 C 6.5 -4.980469 6.726562 -4.796875 6.917969 -4.589844 Z "/>
</g>
<g id="glyph-0-1">
<path d="M 8.828125 -7.292969 L 8.34375 -7.292969 C 8.300781 -7.460938 8.222656 -7.664062 8.113281 -7.894531 C 8.003906 -8.128906 7.878906 -8.347656 7.742188 -8.554688 C 7.601562 -8.769531 7.445312 -8.960938 7.28125 -9.121094 C 7.113281 -9.285156 6.949219 -9.378906 6.796875 -9.402344 C 6.648438 -9.421875 6.464844 -9.433594 6.242188 -9.445312 C 6.023438 -9.453125 5.816406 -9.457031 5.628906 -9.457031 L 5.21875 -9.457031 L 5.21875 -1.453125 C 5.21875 -1.296875 5.25 -1.15625 5.316406 -1.027344 C 5.382812 -0.898438 5.5 -0.796875 5.664062 -0.726562 C 5.746094 -0.695312 5.925781 -0.648438 6.195312 -0.59375 C 6.464844 -0.535156 6.675781 -0.503906 6.828125 -0.5 L 6.828125 0 L 2.101562 0 L 2.101562 -0.5 C 2.234375 -0.511719 2.433594 -0.527344 2.703125 -0.558594 C 2.976562 -0.585938 3.160156 -0.621094 3.265625 -0.664062 C 3.421875 -0.722656 3.535156 -0.8125 3.609375 -0.925781 C 3.679688 -1.042969 3.714844 -1.195312 3.714844 -1.390625 L 3.714844 -9.457031 L 3.308594 -9.457031 C 3.160156 -9.457031 2.980469 -9.453125 2.765625 -9.445312 C 2.546875 -9.441406 2.339844 -9.425781 2.144531 -9.402344 C 1.988281 -9.382812 1.828125 -9.289062 1.660156 -9.121094 C 1.492188 -8.957031 1.339844 -8.765625 1.199219 -8.554688 C 1.058594 -8.34375 0.933594 -8.117188 0.824219 -7.882812 C 0.71875 -7.644531 0.640625 -7.449219 0.597656 -7.292969 L 0.105469 -7.292969 L 0.105469 -10.007812 L 8.828125 -10.007812 Z "/>
</g>
<g id="glyph-0-2">
<path d="M 9.105469 -2.949219 L 8.914062 0 L 0.605469 0 L 0.605469 -0.5 C 0.746094 -0.511719 0.9375 -0.53125 1.171875 -0.5625 C 1.40625 -0.589844 1.558594 -0.621094 1.628906 -0.65625 C 1.78125 -0.726562 1.882812 -0.816406 1.941406 -0.929688 C 2 -1.042969 2.03125 -1.1875 2.03125 -1.359375 L 2.03125 -8.554688 C 2.03125 -8.710938 2.003906 -8.847656 1.953125 -8.96875 C 1.902344 -9.085938 1.792969 -9.183594 1.628906 -9.261719 C 1.503906 -9.320312 1.332031 -9.375 1.117188 -9.421875 C 0.902344 -9.46875 0.734375 -9.496094 0.605469 -9.507812 L 0.605469 -10.007812 L 8.351562 -10.007812 L 8.351562 -7.597656 L 7.820312 -7.597656 C 7.726562 -7.953125 7.523438 -8.332031 7.210938 -8.734375 C 6.898438 -9.136719 6.601562 -9.355469 6.320312 -9.394531 C 6.171875 -9.414062 6 -9.425781 5.796875 -9.4375 C 5.59375 -9.445312 5.363281 -9.449219 5.105469 -9.449219 L 3.535156 -9.449219 L 3.535156 -5.472656 L 4.660156 -5.472656 C 5.023438 -5.472656 5.289062 -5.507812 5.457031 -5.574219 C 5.621094 -5.644531 5.769531 -5.757812 5.894531 -5.917969 C 6 -6.054688 6.085938 -6.234375 6.160156 -6.464844 C 6.234375 -6.691406 6.28125 -6.90625 6.304688 -7.109375 L 6.835938 -7.109375 L 6.835938 -3.1875 L 6.304688 -3.1875 C 6.285156 -3.414062 6.234375 -3.652344 6.152344 -3.902344 C 6.070312 -4.15625 5.984375 -4.335938 5.894531 -4.449219 C 5.75 -4.632812 5.585938 -4.753906 5.398438 -4.808594 C 5.214844 -4.867188 4.96875 -4.894531 4.660156 -4.894531 L 3.535156 -4.894531 L 3.535156 -1.894531 C 3.535156 -1.59375 3.554688 -1.359375 3.597656 -1.183594 C 3.640625 -1.011719 3.722656 -0.878906 3.84375 -0.789062 C 3.964844 -0.699219 4.132812 -0.644531 4.34375 -0.617188 C 4.554688 -0.589844 4.855469 -0.578125 5.246094 -0.578125 C 5.402344 -0.578125 5.605469 -0.578125 5.859375 -0.578125 C 6.113281 -0.578125 6.328125 -0.585938 6.503906 -0.605469 C 6.679688 -0.625 6.867188 -0.660156 7.054688 -0.707031 C 7.246094 -0.757812 7.382812 -0.824219 7.460938 -0.910156 C 7.679688 -1.136719 7.90625 -1.476562 8.140625 -1.9375 C 8.378906 -2.394531 8.53125 -2.730469 8.597656 -2.949219 Z "/>
</g>
<g id="glyph-0-3">
<path d="M 12.738281 0 L 8.316406 0 L 8.316406 -0.5 C 8.476562 -0.503906 8.679688 -0.523438 8.933594 -0.550781 C 9.183594 -0.578125 9.355469 -0.617188 9.449219 -0.671875 C 9.597656 -0.757812 9.703125 -0.863281 9.773438 -0.976562 C 9.839844 -1.09375 9.875 -1.238281 9.875 -1.410156 L 9.875 -8.6875 L 9.769531 -8.6875 L 6.355469 -0.164062 L 6 -0.164062 L 2.75 -8.867188 L 2.660156 -8.867188 L 2.660156 -2.890625 C 2.660156 -2.3125 2.695312 -1.875 2.769531 -1.574219 C 2.839844 -1.273438 2.953125 -1.054688 3.101562 -0.925781 C 3.207031 -0.824219 3.421875 -0.730469 3.746094 -0.640625 C 4.070312 -0.550781 4.28125 -0.503906 4.378906 -0.5 L 4.378906 0 L 0.339844 0 L 0.339844 -0.5 C 0.550781 -0.519531 0.773438 -0.554688 1.003906 -0.605469 C 1.238281 -0.660156 1.417969 -0.734375 1.542969 -0.839844 C 1.710938 -0.972656 1.820312 -1.171875 1.882812 -1.445312 C 1.945312 -1.71875 1.976562 -2.175781 1.976562 -2.8125 L 1.976562 -7.933594 C 1.976562 -8.230469 1.941406 -8.472656 1.867188 -8.660156 C 1.796875 -8.847656 1.699219 -9 1.566406 -9.121094 C 1.421875 -9.246094 1.242188 -9.339844 1.03125 -9.402344 C 0.816406 -9.460938 0.609375 -9.496094 0.402344 -9.507812 L 0.402344 -10.007812 L 3.8125 -10.007812 L 6.679688 -2.496094 L 9.128906 -8.78125 C 9.21875 -9.011719 9.292969 -9.25 9.355469 -9.503906 C 9.421875 -9.753906 9.453125 -9.921875 9.460938 -10.007812 L 12.722656 -10.007812 L 12.722656 -9.507812 C 12.589844 -9.503906 12.421875 -9.480469 12.21875 -9.445312 C 12.015625 -9.40625 11.863281 -9.371094 11.769531 -9.335938 C 11.609375 -9.28125 11.503906 -9.1875 11.445312 -9.054688 C 11.390625 -8.925781 11.363281 -8.78125 11.363281 -8.625 L 11.363281 -1.410156 C 11.363281 -1.246094 11.390625 -1.105469 11.445312 -0.996094 C 11.503906 -0.882812 11.609375 -0.78125 11.769531 -0.699219 C 11.855469 -0.652344 12.007812 -0.609375 12.222656 -0.566406 C 12.4375 -0.527344 12.609375 -0.503906 12.738281 -0.5 Z "/>
</g>
<g id="glyph-0-4">
</g>
<g id="glyph-0-5">
<path d="M 12.40625 0 L 9.019531 0 L 9.019531 -0.464844 C 9.128906 -0.476562 9.238281 -0.484375 9.347656 -0.492188 C 9.457031 -0.503906 9.554688 -0.523438 9.640625 -0.550781 C 9.773438 -0.59375 9.871094 -0.667969 9.933594 -0.773438 C 9.996094 -0.878906 10.027344 -1.015625 10.027344 -1.183594 L 10.027344 -4.773438 C 10.027344 -5.265625 9.917969 -5.640625 9.695312 -5.90625 C 9.46875 -6.171875 9.191406 -6.304688 8.859375 -6.304688 C 8.628906 -6.304688 8.410156 -6.269531 8.210938 -6.199219 C 8.007812 -6.128906 7.820312 -6.03125 7.652344 -5.902344 C 7.515625 -5.800781 7.402344 -5.6875 7.308594 -5.566406 C 7.21875 -5.449219 7.148438 -5.347656 7.101562 -5.269531 L 7.101562 -1.253906 C 7.101562 -1.089844 7.128906 -0.957031 7.1875 -0.851562 C 7.242188 -0.742188 7.339844 -0.664062 7.476562 -0.605469 C 7.585938 -0.5625 7.679688 -0.53125 7.769531 -0.511719 C 7.855469 -0.488281 7.96875 -0.476562 8.109375 -0.464844 L 8.109375 0 L 4.796875 0 L 4.796875 -0.464844 C 4.902344 -0.476562 5.007812 -0.484375 5.109375 -0.492188 C 5.210938 -0.503906 5.304688 -0.523438 5.386719 -0.550781 C 5.519531 -0.59375 5.617188 -0.667969 5.679688 -0.773438 C 5.746094 -0.878906 5.777344 -1.015625 5.777344 -1.183594 L 5.777344 -4.773438 C 5.777344 -5.265625 5.664062 -5.640625 5.441406 -5.90625 C 5.214844 -6.171875 4.9375 -6.304688 4.601562 -6.304688 C 4.371094 -6.304688 4.15625 -6.269531 3.953125 -6.195312 C 3.75 -6.121094 3.5625 -6.023438 3.394531 -5.894531 C 3.257812 -5.792969 3.140625 -5.675781 3.046875 -5.546875 C 2.953125 -5.417969 2.882812 -5.320312 2.835938 -5.253906 L 2.835938 -1.269531 C 2.835938 -1.109375 2.867188 -0.976562 2.933594 -0.867188 C 3 -0.757812 3.097656 -0.675781 3.230469 -0.621094 C 3.328125 -0.574219 3.429688 -0.539062 3.535156 -0.515625 C 3.636719 -0.492188 3.753906 -0.476562 3.878906 -0.464844 L 3.878906 0 L 0.5 0 L 0.5 -0.464844 C 0.609375 -0.476562 0.71875 -0.484375 0.835938 -0.492188 C 0.949219 -0.503906 1.050781 -0.523438 1.136719 -0.550781 C 1.265625 -0.59375 1.363281 -0.667969 1.429688 -0.773438 C 1.492188 -0.878906 1.523438 -1.015625 1.523438 -1.183594 L 1.523438 -5.503906 C 1.523438 -5.652344 1.488281 -5.789062 1.421875 -5.90625 C 1.351562 -6.027344 1.257812 -6.128906 1.136719 -6.214844 C 1.046875 -6.269531 0.9375 -6.316406 0.804688 -6.351562 C 0.671875 -6.386719 0.535156 -6.410156 0.394531 -6.417969 L 0.394531 -6.882812 L 2.722656 -7.039062 L 2.820312 -6.941406 L 2.820312 -5.945312 L 2.871094 -5.945312 C 2.988281 -6.0625 3.132812 -6.203125 3.300781 -6.363281 C 3.46875 -6.519531 3.628906 -6.652344 3.773438 -6.75 C 3.9375 -6.863281 4.144531 -6.957031 4.390625 -7.03125 C 4.636719 -7.105469 4.902344 -7.144531 5.191406 -7.144531 C 5.640625 -7.144531 6.03125 -7.023438 6.355469 -6.78125 C 6.679688 -6.539062 6.910156 -6.246094 7.054688 -5.902344 C 7.222656 -6.066406 7.371094 -6.210938 7.5 -6.335938 C 7.628906 -6.460938 7.800781 -6.59375 8.011719 -6.734375 C 8.1875 -6.859375 8.398438 -6.957031 8.640625 -7.03125 C 8.882812 -7.105469 9.152344 -7.144531 9.445312 -7.144531 C 10.035156 -7.144531 10.5 -6.953125 10.839844 -6.566406 C 11.183594 -6.179688 11.355469 -5.589844 11.355469 -4.789062 L 11.355469 -1.253906 C 11.355469 -1.089844 11.382812 -0.957031 11.441406 -0.851562 C 11.496094 -0.742188 11.59375 -0.664062 11.730469 -0.605469 C 11.835938 -0.5625 11.945312 -0.53125 12.050781 -0.511719 C 12.15625 -0.488281 12.273438 -0.476562 12.40625 -0.464844 Z "/>
</g>
<g id="glyph-0-6">
<path d="M 7.09375 -0.125 C 6.875 -0.046875 6.679688 0.0195312 6.511719 0.0664062 C 6.347656 0.117188 6.15625 0.140625 5.945312 0.140625 C 5.578125 0.140625 5.285156 0.0546875 5.066406 -0.117188 C 4.847656 -0.289062 4.707031 -0.539062 4.648438 -0.867188 L 4.605469 -0.867188 C 4.300781 -0.527344 3.972656 -0.269531 3.621094 -0.0898438 C 3.269531 0.0859375 2.847656 0.175781 2.355469 0.175781 C 1.832031 0.175781 1.40625 0.015625 1.070312 -0.304688 C 0.730469 -0.621094 0.5625 -1.042969 0.5625 -1.558594 C 0.5625 -1.828125 0.601562 -2.066406 0.675781 -2.277344 C 0.753906 -2.488281 0.863281 -2.679688 1.015625 -2.847656 C 1.132812 -2.992188 1.289062 -3.117188 1.480469 -3.226562 C 1.675781 -3.335938 1.855469 -3.425781 2.023438 -3.492188 C 2.234375 -3.570312 2.664062 -3.71875 3.3125 -3.933594 C 3.957031 -4.152344 4.394531 -4.320312 4.621094 -4.441406 L 4.621094 -5.140625 C 4.621094 -5.203125 4.605469 -5.320312 4.582031 -5.492188 C 4.554688 -5.667969 4.5 -5.832031 4.414062 -5.988281 C 4.320312 -6.160156 4.1875 -6.3125 4.015625 -6.441406 C 3.84375 -6.570312 3.601562 -6.636719 3.285156 -6.636719 C 3.070312 -6.636719 2.871094 -6.601562 2.683594 -6.527344 C 2.496094 -6.453125 2.367188 -6.378906 2.292969 -6.296875 C 2.292969 -6.203125 2.316406 -6.066406 2.359375 -5.882812 C 2.402344 -5.699219 2.425781 -5.53125 2.425781 -5.375 C 2.425781 -5.210938 2.351562 -5.058594 2.203125 -4.921875 C 2.054688 -4.785156 1.851562 -4.71875 1.585938 -4.71875 C 1.351562 -4.71875 1.179688 -4.800781 1.070312 -4.96875 C 0.957031 -5.136719 0.902344 -5.324219 0.902344 -5.53125 C 0.902344 -5.746094 0.980469 -5.953125 1.132812 -6.148438 C 1.285156 -6.347656 1.484375 -6.523438 1.726562 -6.679688 C 1.941406 -6.8125 2.195312 -6.921875 2.496094 -7.015625 C 2.796875 -7.105469 3.089844 -7.152344 3.378906 -7.152344 C 3.773438 -7.152344 4.117188 -7.125 4.410156 -7.070312 C 4.707031 -7.015625 4.972656 -6.898438 5.210938 -6.722656 C 5.453125 -6.546875 5.632812 -6.3125 5.757812 -6.011719 C 5.882812 -5.714844 5.945312 -5.328125 5.945312 -4.859375 C 5.945312 -4.1875 5.9375 -3.589844 5.925781 -3.070312 C 5.910156 -2.550781 5.902344 -1.984375 5.902344 -1.367188 C 5.902344 -1.183594 5.933594 -1.039062 6 -0.929688 C 6.0625 -0.824219 6.160156 -0.730469 6.292969 -0.65625 C 6.363281 -0.613281 6.472656 -0.589844 6.625 -0.585938 C 6.777344 -0.582031 6.933594 -0.578125 7.09375 -0.578125 L 7.09375 -0.125 M 4.632812 -3.851562 C 4.234375 -3.734375 3.882812 -3.617188 3.582031 -3.503906 C 3.28125 -3.390625 3.003906 -3.25 2.742188 -3.082031 C 2.507812 -2.921875 2.324219 -2.730469 2.1875 -2.511719 C 2.050781 -2.292969 1.980469 -2.03125 1.980469 -1.730469 C 1.980469 -1.339844 2.085938 -1.050781 2.289062 -0.867188 C 2.492188 -0.683594 2.753906 -0.59375 3.066406 -0.59375 C 3.402344 -0.59375 3.695312 -0.671875 3.949219 -0.835938 C 4.203125 -1 4.417969 -1.191406 4.589844 -1.414062 Z "/>
</g>
<g id="glyph-0-7">
<path d="M 8.125 -0.125 L 5.691406 0.0273438 L 5.585938 -0.0703125 L 5.585938 -0.71875 L 5.53125 -0.734375 C 5.285156 -0.460938 4.984375 -0.238281 4.625 -0.0625 C 4.265625 0.109375 3.894531 0.199219 3.515625 0.199219 C 3.121094 0.199219 2.738281 0.109375 2.371094 -0.0664062 C 2.003906 -0.242188 1.679688 -0.492188 1.410156 -0.8125 C 1.132812 -1.136719 0.914062 -1.527344 0.75 -1.980469 C 0.589844 -2.4375 0.507812 -2.941406 0.507812 -3.492188 C 0.507812 -3.996094 0.59375 -4.472656 0.769531 -4.921875 C 0.941406 -5.375 1.179688 -5.769531 1.488281 -6.109375 C 1.773438 -6.421875 2.125 -6.675781 2.539062 -6.863281 C 2.957031 -7.050781 3.378906 -7.144531 3.8125 -7.144531 C 4.136719 -7.144531 4.453125 -7.101562 4.765625 -7.019531 C 5.078125 -6.9375 5.347656 -6.835938 5.570312 -6.707031 L 5.570312 -9.132812 C 5.570312 -9.328125 5.539062 -9.507812 5.472656 -9.671875 C 5.40625 -9.835938 5.316406 -9.957031 5.199219 -10.042969 C 5.066406 -10.132812 4.890625 -10.195312 4.664062 -10.238281 C 4.441406 -10.277344 4.199219 -10.304688 3.941406 -10.324219 L 3.941406 -10.761719 L 6.792969 -10.917969 L 6.898438 -10.8125 L 6.898438 -1.4375 C 6.898438 -1.273438 6.929688 -1.132812 6.992188 -1.019531 C 7.054688 -0.902344 7.148438 -0.804688 7.269531 -0.726562 C 7.359375 -0.671875 7.488281 -0.632812 7.660156 -0.621094 C 7.828125 -0.605469 7.984375 -0.597656 8.125 -0.59375 L 8.125 -0.125 M 5.570312 -1.347656 L 5.570312 -5.417969 C 5.535156 -5.539062 5.472656 -5.671875 5.390625 -5.8125 C 5.304688 -5.953125 5.199219 -6.082031 5.070312 -6.199219 C 4.9375 -6.316406 4.777344 -6.414062 4.59375 -6.492188 C 4.410156 -6.570312 4.195312 -6.609375 3.953125 -6.609375 C 3.671875 -6.609375 3.410156 -6.535156 3.175781 -6.390625 C 2.9375 -6.242188 2.726562 -6.035156 2.546875 -5.761719 C 2.371094 -5.5 2.234375 -5.164062 2.132812 -4.757812 C 2.03125 -4.351562 1.980469 -3.898438 1.980469 -3.40625 C 1.980469 -3.011719 2.019531 -2.652344 2.09375 -2.332031 C 2.167969 -2.007812 2.296875 -1.710938 2.472656 -1.433594 C 2.640625 -1.167969 2.847656 -0.957031 3.105469 -0.796875 C 3.359375 -0.636719 3.664062 -0.558594 4.015625 -0.558594 C 4.390625 -0.558594 4.703125 -0.640625 4.949219 -0.804688 C 5.195312 -0.96875 5.402344 -1.148438 5.570312 -1.347656 Z "/>
</g>
<g id="glyph-0-8">
<path d="M 6.6875 -1.636719 C 6.394531 -1.082031 6.003906 -0.640625 5.515625 -0.308594 C 5.027344 0.0195312 4.464844 0.183594 3.828125 0.183594 C 3.269531 0.183594 2.78125 0.0859375 2.359375 -0.113281 C 1.9375 -0.308594 1.589844 -0.578125 1.320312 -0.917969 C 1.046875 -1.253906 0.84375 -1.648438 0.707031 -2.101562 C 0.574219 -2.554688 0.507812 -3.03125 0.507812 -3.535156 C 0.507812 -3.984375 0.578125 -4.429688 0.722656 -4.863281 C 0.867188 -5.296875 1.078125 -5.6875 1.355469 -6.039062 C 1.621094 -6.371094 1.953125 -6.640625 2.351562 -6.84375 C 2.75 -7.050781 3.195312 -7.152344 3.6875 -7.152344 C 4.195312 -7.152344 4.632812 -7.070312 4.992188 -6.910156 C 5.355469 -6.75 5.648438 -6.53125 5.875 -6.253906 C 6.089844 -5.992188 6.253906 -5.683594 6.359375 -5.324219 C 6.464844 -4.96875 6.515625 -4.578125 6.515625 -4.160156 L 6.515625 -3.695312 L 1.910156 -3.695312 C 1.910156 -3.238281 1.953125 -2.824219 2.042969 -2.453125 C 2.128906 -2.078125 2.265625 -1.75 2.453125 -1.46875 C 2.636719 -1.195312 2.878906 -0.980469 3.171875 -0.820312 C 3.46875 -0.664062 3.824219 -0.585938 4.230469 -0.585938 C 4.648438 -0.585938 5.011719 -0.683594 5.3125 -0.878906 C 5.617188 -1.074219 5.910156 -1.429688 6.191406 -1.941406 L 6.6875 -1.636719 M 5.128906 -4.289062 C 5.128906 -4.550781 5.105469 -4.832031 5.058594 -5.132812 C 5.015625 -5.433594 4.945312 -5.683594 4.84375 -5.882812 C 4.738281 -6.101562 4.589844 -6.277344 4.402344 -6.410156 C 4.210938 -6.546875 3.96875 -6.617188 3.675781 -6.617188 C 3.179688 -6.617188 2.769531 -6.410156 2.445312 -6 C 2.117188 -5.589844 1.941406 -5.019531 1.910156 -4.289062 Z "/>
</g>
<g id="glyph-0-9">
<path d="M 3.722656 0.183594 C 2.71875 0.183594 1.929688 -0.152344 1.359375 -0.816406 C 0.792969 -1.484375 0.507812 -2.382812 0.507812 -3.503906 C 0.507812 -3.996094 0.585938 -4.453125 0.738281 -4.878906 C 0.890625 -5.300781 1.113281 -5.6875 1.402344 -6.039062 C 1.679688 -6.371094 2.027344 -6.640625 2.449219 -6.84375 C 2.867188 -7.050781 3.320312 -7.152344 3.816406 -7.152344 C 4.496094 -7.152344 5.050781 -6.988281 5.480469 -6.660156 C 5.90625 -6.335938 6.121094 -5.890625 6.121094 -5.324219 C 6.121094 -5.089844 6.066406 -4.882812 5.953125 -4.699219 C 5.839844 -4.519531 5.652344 -4.429688 5.394531 -4.429688 C 5.117188 -4.429688 4.902344 -4.5 4.75 -4.640625 C 4.597656 -4.78125 4.519531 -4.9375 4.519531 -5.109375 C 4.519531 -5.320312 4.550781 -5.539062 4.605469 -5.761719 C 4.660156 -5.984375 4.695312 -6.148438 4.703125 -6.25 C 4.621094 -6.394531 4.496094 -6.492188 4.328125 -6.542969 C 4.160156 -6.589844 3.980469 -6.617188 3.789062 -6.617188 C 3.566406 -6.617188 3.351562 -6.566406 3.144531 -6.472656 C 2.941406 -6.375 2.742188 -6.195312 2.550781 -5.9375 C 2.378906 -5.703125 2.238281 -5.386719 2.128906 -4.984375 C 2.023438 -4.585938 1.96875 -4.109375 1.96875 -3.554688 C 1.96875 -2.679688 2.160156 -1.964844 2.546875 -1.414062 C 2.9375 -0.863281 3.445312 -0.585938 4.074219 -0.585938 C 4.527344 -0.585938 4.910156 -0.695312 5.21875 -0.917969 C 5.523438 -1.140625 5.808594 -1.472656 6.074219 -1.917969 L 6.523438 -1.621094 C 6.214844 -1.066406 5.804688 -0.628906 5.296875 -0.304688 C 4.789062 0.0195312 4.265625 0.183594 3.722656 0.183594 Z "/>
</g>
<g id="glyph-0-10">
<path d="M 3.765625 0 L 0.375 0 L 0.375 -0.464844 C 0.480469 -0.476562 0.597656 -0.484375 0.71875 -0.496094 C 0.839844 -0.507812 0.941406 -0.527344 1.023438 -0.550781 C 1.15625 -0.59375 1.253906 -0.667969 1.320312 -0.773438 C 1.382812 -0.878906 1.417969 -1.015625 1.417969 -1.183594 L 1.417969 -9.246094 C 1.417969 -9.414062 1.382812 -9.574219 1.308594 -9.722656 C 1.234375 -9.871094 1.140625 -9.988281 1.023438 -10.070312 C 0.9375 -10.128906 0.78125 -10.179688 0.558594 -10.226562 C 0.332031 -10.273438 0.152344 -10.300781 0.015625 -10.3125 L 0.015625 -10.761719 L 2.628906 -10.917969 L 2.730469 -10.8125 L 2.730469 -1.269531 C 2.730469 -1.105469 2.761719 -0.96875 2.820312 -0.863281 C 2.882812 -0.757812 2.980469 -0.675781 3.117188 -0.621094 C 3.222656 -0.574219 3.324219 -0.539062 3.425781 -0.515625 C 3.523438 -0.492188 3.640625 -0.476562 3.765625 -0.464844 Z "/>
</g>
<g id="glyph-0-11">
<path d="M 5.832031 -6.058594 C 5.832031 -5.820312 5.773438 -5.605469 5.65625 -5.421875 C 5.539062 -5.234375 5.359375 -5.140625 5.113281 -5.140625 C 4.851562 -5.140625 4.648438 -5.210938 4.511719 -5.347656 C 4.371094 -5.480469 4.300781 -5.632812 4.300781 -5.796875 C 4.300781 -5.902344 4.308594 -5.996094 4.328125 -6.078125 C 4.34375 -6.164062 4.359375 -6.25 4.371094 -6.332031 C 4.152344 -6.332031 3.894531 -6.242188 3.597656 -6.066406 C 3.300781 -5.886719 3.050781 -5.632812 2.84375 -5.304688 L 2.84375 -1.253906 C 2.84375 -1.089844 2.875 -0.957031 2.9375 -0.851562 C 3 -0.75 3.101562 -0.671875 3.238281 -0.621094 C 3.355469 -0.574219 3.507812 -0.539062 3.691406 -0.515625 C 3.878906 -0.492188 4.039062 -0.476562 4.175781 -0.464844 L 4.175781 0 L 0.507812 0 L 0.507812 -0.464844 C 0.617188 -0.476562 0.726562 -0.484375 0.84375 -0.492188 C 0.957031 -0.503906 1.058594 -0.523438 1.140625 -0.550781 C 1.273438 -0.59375 1.371094 -0.667969 1.433594 -0.773438 C 1.5 -0.878906 1.53125 -1.015625 1.53125 -1.183594 L 1.53125 -5.472656 C 1.53125 -5.621094 1.496094 -5.761719 1.429688 -5.902344 C 1.359375 -6.042969 1.265625 -6.15625 1.140625 -6.242188 C 1.054688 -6.296875 0.949219 -6.339844 0.824219 -6.363281 C 0.703125 -6.390625 0.570312 -6.410156 0.429688 -6.417969 L 0.429688 -6.882812 L 2.742188 -7.039062 L 2.84375 -6.941406 L 2.84375 -5.960938 L 2.878906 -5.960938 C 3.167969 -6.339844 3.492188 -6.628906 3.851562 -6.828125 C 4.207031 -7.023438 4.535156 -7.125 4.832031 -7.125 C 5.128906 -7.125 5.367188 -7.027344 5.554688 -6.835938 C 5.738281 -6.640625 5.832031 -6.382812 5.832031 -6.058594 Z "/>
</g>
</g>
</defs>
<g fill="rgb(58.039216%, 63.921569%, 72.156863%)" fill-opacity="1">
<use xlink:href="#glyph-0-0" x="30" y="33.244141"/>
<use xlink:href="#glyph-0-1" x="38" y="33.244141"/>
<use xlink:href="#glyph-0-2" x="47" y="33.244141"/>
<use xlink:href="#glyph-0-3" x="56" y="33.244141"/>
<use xlink:href="#glyph-0-4" x="69" y="33.244141"/>
<use xlink:href="#glyph-0-5" x="72" y="33.244141"/>
<use xlink:href="#glyph-0-6" x="85" y="33.244141"/>
<use xlink:href="#glyph-0-7" x="92" y="33.244141"/>
<use xlink:href="#glyph-0-8" x="100" y="33.244141"/>
<use xlink:href="#glyph-0-4" x="107" y="33.244141"/>
<use xlink:href="#glyph-0-9" x="110" y="33.244141"/>
<use xlink:href="#glyph-0-10" x="117" y="33.244141"/>
<use xlink:href="#glyph-0-8" x="121" y="33.244141"/>
<use xlink:href="#glyph-0-6" x="128" y="33.244141"/>
<use xlink:href="#glyph-0-11" x="135" y="33.244141"/>
<use xlink:href="#glyph-0-8" x="141" y="33.244141"/>
<use xlink:href="#glyph-0-11" x="148" y="33.244141"/>
</g>
</svg>
